<mxfile host="Electron" modified="2023-06-05T01:43:13.110Z" agent="Mozilla/5.0 (Windows NT 10.0; Win64; x64) AppleWebKit/537.36 (KHTML, like Gecko) draw.io/21.2.8 Chrome/112.0.5615.165 Electron/24.2.0 Safari/537.36" etag="4BW0duwgsR7tF8UODfAa" version="21.2.8" type="device">
  <diagram name="Page-1" id="tEqyPzfYsex7zBpoLPER">
    <mxGraphModel dx="1098" dy="803" grid="1" gridSize="10" guides="1" tooltips="1" connect="1" arrows="1" fold="1" page="1" pageScale="1" pageWidth="1600" pageHeight="900" background="none" math="0" shadow="0">
      <root>
        <mxCell id="0" />
        <mxCell id="1" parent="0" />
        <mxCell id="ZXS4JnYuKsophATF61ro-17" value="" style="group;strokeColor=default;fontFamily=Helvetica;perimeterSpacing=3;container=0;" parent="1" vertex="1" connectable="0">
          <mxGeometry x="10" y="10" width="320" height="420" as="geometry" />
        </mxCell>
        <mxCell id="tFpLuP8fXuImutftHoRk-45" value="External Connection&lt;br&gt;(Game)" style="strokeWidth=2;html=1;shape=mxgraph.flowchart.terminator;whiteSpace=wrap;labelBackgroundColor=none;rounded=0;fontFamily=Helvetica;container=0;" parent="1" vertex="1">
          <mxGeometry x="100" y="450" width="140" height="50" as="geometry" />
        </mxCell>
        <mxCell id="tFpLuP8fXuImutftHoRk-10" value="" style="endArrow=classic;startArrow=classic;html=1;rounded=0;entryX=0.75;entryY=1;entryDx=0;entryDy=0;labelBackgroundColor=none;fontColor=default;fontFamily=Helvetica;exitX=0.679;exitY=-0.04;exitDx=0;exitDy=0;exitPerimeter=0;" parent="1" source="tFpLuP8fXuImutftHoRk-45" target="tFpLuP8fXuImutftHoRk-14" edge="1">
          <mxGeometry width="50" height="50" relative="1" as="geometry">
            <mxPoint x="195" y="440" as="sourcePoint" />
            <mxPoint x="250" y="330" as="targetPoint" />
          </mxGeometry>
        </mxCell>
        <mxCell id="tFpLuP8fXuImutftHoRk-13" value="" style="endArrow=classic;startArrow=classic;html=1;rounded=0;entryX=0.25;entryY=1;entryDx=0;entryDy=0;dashed=1;labelBackgroundColor=none;fontColor=default;fontFamily=Helvetica;" parent="1" target="tFpLuP8fXuImutftHoRk-14" edge="1">
          <mxGeometry width="50" height="50" relative="1" as="geometry">
            <mxPoint x="145" y="450" as="sourcePoint" />
            <mxPoint x="170" y="460" as="targetPoint" />
          </mxGeometry>
        </mxCell>
        <mxCell id="ZXS4JnYuKsophATF61ro-3" value="Upper Layers (Game Server)" style="swimlane;whiteSpace=wrap;html=1;startSize=20;rounded=0;labelBackgroundColor=none;container=0;fontFamily=Helvetica;" parent="1" vertex="1">
          <mxGeometry x="20" y="20" width="300" height="290" as="geometry" />
        </mxCell>
        <mxCell id="tFpLuP8fXuImutftHoRk-14" value="Core" style="rounded=0;whiteSpace=wrap;html=1;labelBackgroundColor=none;container=0;fontFamily=Helvetica;" parent="1" vertex="1">
          <mxGeometry x="120" y="370" width="100" height="40" as="geometry" />
        </mxCell>
        <mxCell id="tFpLuP8fXuImutftHoRk-23" value="Gateway" style="rounded=0;whiteSpace=wrap;html=1;labelBackgroundColor=none;container=0;fontFamily=Helvetica;" parent="1" vertex="1">
          <mxGeometry x="120" y="250" width="100" height="40" as="geometry" />
        </mxCell>
        <mxCell id="tFpLuP8fXuImutftHoRk-28" value="" style="endArrow=classic;html=1;entryX=0.25;entryY=1;entryDx=0;entryDy=0;dashed=1;shadow=0;exitX=0.25;exitY=0;exitDx=0;exitDy=0;labelBackgroundColor=none;fontColor=default;curved=1;rounded=0;fontFamily=Helvetica;" parent="1" source="tFpLuP8fXuImutftHoRk-14" target="tFpLuP8fXuImutftHoRk-23" edge="1">
          <mxGeometry width="50" height="50" relative="1" as="geometry">
            <mxPoint x="110" y="410" as="sourcePoint" />
            <mxPoint x="150" y="270" as="targetPoint" />
            <Array as="points" />
          </mxGeometry>
        </mxCell>
        <mxCell id="tFpLuP8fXuImutftHoRk-38" value="" style="endArrow=classic;html=1;dashed=1;entryX=0.75;entryY=0;entryDx=0;entryDy=0;labelBackgroundColor=none;fontColor=default;exitX=0.75;exitY=1;exitDx=0;exitDy=0;curved=1;rounded=0;fontFamily=Helvetica;" parent="1" source="tFpLuP8fXuImutftHoRk-23" target="tFpLuP8fXuImutftHoRk-14" edge="1">
          <mxGeometry width="50" height="50" relative="1" as="geometry">
            <mxPoint x="250" y="250" as="sourcePoint" />
            <mxPoint x="230" y="410" as="targetPoint" />
            <Array as="points" />
          </mxGeometry>
        </mxCell>
        <mxCell id="tFpLuP8fXuImutftHoRk-39" value="Tunnel Data" style="swimlane;whiteSpace=wrap;html=1;startSize=20;labelBackgroundColor=none;rounded=0;container=0;fontFamily=Helvetica;" parent="1" vertex="1">
          <mxGeometry x="40" y="130" width="260" height="100" as="geometry" />
        </mxCell>
        <mxCell id="tFpLuP8fXuImutftHoRk-43" value="" style="endArrow=classic;startArrow=classic;html=1;entryX=0.5;entryY=1;entryDx=0;entryDy=0;exitX=0.5;exitY=0;exitDx=0;exitDy=0;dashed=1;labelBackgroundColor=none;fontColor=default;curved=1;rounded=0;fontFamily=Helvetica;" parent="1" source="tFpLuP8fXuImutftHoRk-23" target="tFpLuP8fXuImutftHoRk-40" edge="1">
          <mxGeometry width="50" height="50" relative="1" as="geometry">
            <mxPoint x="10" y="300" as="sourcePoint" />
            <mxPoint x="60" y="250" as="targetPoint" />
            <Array as="points">
              <mxPoint x="110" y="230" />
            </Array>
          </mxGeometry>
        </mxCell>
        <mxCell id="tFpLuP8fXuImutftHoRk-44" value="" style="endArrow=classic;startArrow=classic;html=1;entryX=0.5;entryY=1;entryDx=0;entryDy=0;exitX=0.5;exitY=0;exitDx=0;exitDy=0;dashed=1;labelBackgroundColor=none;fontColor=default;curved=1;rounded=0;fontFamily=Helvetica;" parent="1" source="tFpLuP8fXuImutftHoRk-23" target="tFpLuP8fXuImutftHoRk-41" edge="1">
          <mxGeometry width="50" height="50" relative="1" as="geometry">
            <mxPoint x="10" y="300" as="sourcePoint" />
            <mxPoint x="60" y="250" as="targetPoint" />
            <Array as="points">
              <mxPoint x="230" y="230" />
            </Array>
          </mxGeometry>
        </mxCell>
        <mxCell id="tFpLuP8fXuImutftHoRk-47" value="Client / Zone" style="strokeWidth=2;html=1;shape=mxgraph.flowchart.terminator;whiteSpace=wrap;labelBackgroundColor=none;rounded=0;container=0;fontFamily=Helvetica;" parent="1" vertex="1">
          <mxGeometry x="40" y="60" width="100" height="50" as="geometry" />
        </mxCell>
        <mxCell id="tFpLuP8fXuImutftHoRk-48" value="Other?" style="strokeWidth=2;html=1;shape=mxgraph.flowchart.terminator;whiteSpace=wrap;labelBackgroundColor=none;rounded=0;container=0;fontFamily=Helvetica;" parent="1" vertex="1">
          <mxGeometry x="200" y="60" width="100" height="50" as="geometry" />
        </mxCell>
        <mxCell id="tFpLuP8fXuImutftHoRk-51" value="" style="endArrow=classic;startArrow=classic;html=1;entryX=0.5;entryY=1;entryDx=0;entryDy=0;entryPerimeter=0;exitX=0.5;exitY=0;exitDx=0;exitDy=0;dashed=1;labelBackgroundColor=none;fontColor=default;curved=1;rounded=0;fontFamily=Helvetica;" parent="1" source="tFpLuP8fXuImutftHoRk-40" target="tFpLuP8fXuImutftHoRk-47" edge="1">
          <mxGeometry width="50" height="50" relative="1" as="geometry">
            <mxPoint x="170" y="130" as="sourcePoint" />
            <mxPoint x="220" y="80" as="targetPoint" />
            <Array as="points">
              <mxPoint x="90" y="140" />
            </Array>
          </mxGeometry>
        </mxCell>
        <mxCell id="tFpLuP8fXuImutftHoRk-52" value="" style="endArrow=classic;startArrow=classic;html=1;entryX=0.5;entryY=1;entryDx=0;entryDy=0;entryPerimeter=0;exitX=0.5;exitY=0;exitDx=0;exitDy=0;dashed=1;labelBackgroundColor=none;fontColor=default;curved=1;rounded=0;fontFamily=Helvetica;" parent="1" source="tFpLuP8fXuImutftHoRk-41" target="tFpLuP8fXuImutftHoRk-48" edge="1">
          <mxGeometry width="50" height="50" relative="1" as="geometry">
            <mxPoint x="170" y="130" as="sourcePoint" />
            <mxPoint x="220" y="80" as="targetPoint" />
            <Array as="points">
              <mxPoint x="250" y="140" />
            </Array>
          </mxGeometry>
        </mxCell>
        <mxCell id="tFpLuP8fXuImutftHoRk-40" value="Channel X" style="rounded=0;whiteSpace=wrap;html=1;labelBackgroundColor=none;container=0;fontFamily=Helvetica;" parent="1" vertex="1">
          <mxGeometry x="60" y="170" width="100" height="40" as="geometry" />
        </mxCell>
        <mxCell id="tFpLuP8fXuImutftHoRk-41" value="Channel Y" style="rounded=0;whiteSpace=wrap;html=1;labelBackgroundColor=none;container=0;fontFamily=Helvetica;" parent="1" vertex="1">
          <mxGeometry x="180" y="170" width="100" height="40" as="geometry" />
        </mxCell>
        <mxCell id="ZXS4JnYuKsophATF61ro-15" value="" style="swimlane;startSize=0;fontFamily=Helvetica;fontSize=11;container=0;dashed=1;dashPattern=1 4;" parent="1" vertex="1">
          <mxGeometry x="10" y="30" width="320" height="310" as="geometry" />
        </mxCell>
        <mxCell id="BJqKjyCUblNf6NB0ZM6D-1" value="Little Endian" style="text;html=1;strokeColor=none;fillColor=none;align=left;verticalAlign=middle;whiteSpace=wrap;rounded=0;fontStyle=2" parent="1" vertex="1">
          <mxGeometry x="20" y="310" width="80" height="30" as="geometry" />
        </mxCell>
        <mxCell id="BJqKjyCUblNf6NB0ZM6D-2" value="Big Endian" style="text;html=1;strokeColor=none;fillColor=none;align=left;verticalAlign=middle;whiteSpace=wrap;rounded=0;fontStyle=2" parent="1" vertex="1">
          <mxGeometry x="20" y="340" width="80" height="30" as="geometry" />
        </mxCell>
      </root>
    </mxGraphModel>
  </diagram>
</mxfile>
